<svg xmlns="http://www.w3.org/2000/svg" width="416.001" height="416" viewBox="0 0 416.001 416">
  <g id="create-outline" transform="translate(-48 -48)">
    <path id="Path_1" data-name="Path 1" d="M384,224V408a40,40,0,0,1-40,40H104a40,40,0,0,1-40-40V168a40,40,0,0,1,40-40H271.48" fill="none" stroke="#fff" stroke-linecap="round" stroke-linejoin="round" stroke-width="32"/>
    <path id="Path_2" data-name="Path 2" d="M459.94,53.25a16.06,16.06,0,0,0-23.22-.56L424.35,65a8,8,0,0,0,0,11.31l11.34,11.32a8,8,0,0,0,11.34,0l12.06-12C465.19,69.54,465.76,59.62,459.94,53.25ZM399.34,90,218.82,270.2a9,9,0,0,0-2.31,3.93L208.16,299a3.91,3.91,0,0,0,4.86,4.86l24.85-8.35a9,9,0,0,0,3.93-2.31L422,112.66A9,9,0,0,0,422,100l-9.95-10a9,9,0,0,0-12.71,0Z" fill="#fff"/>
  </g>
</svg>
