<svg width="44" height="38" viewBox="0 0 44 38" fill="none" xmlns="http://www.w3.org/2000/svg">
    <path d="M18.8 0H12.53V15.67H18.8V0Z" fill="#00A1E1"/>
    <path d="M18.8 21.9299H12.53V37.5999H18.8V21.9299Z" fill="#00A1E1"/>
    <path d="M6.27 0H0V37.6H6.27V0Z" fill="#00A1E1"/>
    <path d="M43.8601 18.8V0H37.5901V18.8C37.5901 19.6301 37.2603 20.4263 36.6733 21.0132C36.0863 21.6002 35.2902 21.93 34.4601 21.93C33.6299 21.93 32.8338 21.6002 32.2468 21.0132C31.6598 20.4263 31.3301 19.6301 31.3301 18.8V0H25.0601V18.8C25.0601 21.293 26.0504 23.684 27.8133 25.4468C29.5761 27.2096 31.967 28.2 34.4601 28.2C36.9531 28.2 39.344 27.2096 41.1069 25.4468C42.8697 23.684 43.8601 21.293 43.8601 18.8Z" fill="#E6302B"/>

</svg>