<svg xmlns="http://www.w3.org/2000/svg" width="448" height="448" viewBox="0 0 448 448">
  <path id="save-outline" d="M380.93,57.37A32,32,0,0,0,358.3,48H94.22A46.212,46.212,0,0,0,48,94.23V417.78A46.212,46.212,0,0,0,94.23,464H417.78A46.36,46.36,0,0,0,464,417.78V153.7a32,32,0,0,0-9.374-22.634ZM256,416a63.92,63.92,0,1,1,45.278-18.722A64,64,0,0,1,256,416Zm48-224H112a16,16,0,0,1-16-16V112a16,16,0,0,1,16-16H304a16,16,0,0,1,16,16v64A16,16,0,0,1,304,192Z" transform="translate(-32 -32)" fill="none" stroke="#fff" stroke-linecap="round" stroke-linejoin="round" stroke-width="32"/>
</svg>
